G04 #@! TF.GenerationSoftware,KiCad,Pcbnew,9.0.5*
G04 #@! TF.CreationDate,2026-04-21T12:32:03+09:00*
G04 #@! TF.ProjectId,TimeRGB,54696d65-5247-4422-9e6b-696361645f70,1.0*
G04 #@! TF.SameCoordinates,Original*
G04 #@! TF.FileFunction,Legend,Top*
G04 #@! TF.FilePolarity,Positive*
%FSLAX46Y46*%
G04 Gerber Fmt 4.6, Leading zero omitted, Abs format (unit mm)*
G04 Created by KiCad (PCBNEW 9.0.5) date 2026-04-21 12:32:03*
%MOMM*%
%LPD*%
G01*
G04 APERTURE LIST*
G04 Aperture macros list*
%AMRoundRect*
0 Rectangle with rounded corners*
0 $1 Rounding radius*
0 $2 $3 $4 $5 $6 $7 $8 $9 X,Y pos of 4 corners*
0 Add a 4 corners polygon primitive as box body*
4,1,4,$2,$3,$4,$5,$6,$7,$8,$9,$2,$3,0*
0 Add four circle primitives for the rounded corners*
1,1,$1+$1,$2,$3*
1,1,$1+$1,$4,$5*
1,1,$1+$1,$6,$7*
1,1,$1+$1,$8,$9*
0 Add four rect primitives between the rounded corners*
20,1,$1+$1,$2,$3,$4,$5,0*
20,1,$1+$1,$4,$5,$6,$7,0*
20,1,$1+$1,$6,$7,$8,$9,0*
20,1,$1+$1,$8,$9,$2,$3,0*%
G04 Aperture macros list end*
%ADD10C,0.200000*%
%ADD11C,0.150000*%
%ADD12C,0.120000*%
%ADD13R,1.700000X1.700000*%
%ADD14C,1.700000*%
%ADD15RoundRect,0.250000X-0.550000X0.550000X-0.550000X-0.550000X0.550000X-0.550000X0.550000X0.550000X0*%
%ADD16C,1.600000*%
G04 APERTURE END LIST*
D10*
X151971666Y-101303933D02*
X151855000Y-102237266D01*
X151705000Y-100770600D02*
X151246666Y-101770600D01*
X151246666Y-101770600D02*
X152113333Y-101770600D01*
X152654999Y-101703933D02*
X153721666Y-101703933D01*
X154321666Y-102237266D02*
X154496666Y-100837266D01*
X154496666Y-100837266D02*
X154829999Y-100837266D01*
X154829999Y-100837266D02*
X155021666Y-100903933D01*
X155021666Y-100903933D02*
X155138332Y-101037266D01*
X155138332Y-101037266D02*
X155188332Y-101170600D01*
X155188332Y-101170600D02*
X155221666Y-101437266D01*
X155221666Y-101437266D02*
X155196666Y-101637266D01*
X155196666Y-101637266D02*
X155096666Y-101903933D01*
X155096666Y-101903933D02*
X155013332Y-102037266D01*
X155013332Y-102037266D02*
X154863332Y-102170600D01*
X154863332Y-102170600D02*
X154654999Y-102237266D01*
X154654999Y-102237266D02*
X154321666Y-102237266D01*
X155721666Y-102237266D02*
X155838332Y-101303933D01*
X155896666Y-100837266D02*
X155821666Y-100903933D01*
X155821666Y-100903933D02*
X155879999Y-100970600D01*
X155879999Y-100970600D02*
X155954999Y-100903933D01*
X155954999Y-100903933D02*
X155896666Y-100837266D01*
X155896666Y-100837266D02*
X155879999Y-100970600D01*
X157104999Y-101303933D02*
X156963333Y-102437266D01*
X156963333Y-102437266D02*
X156879999Y-102570600D01*
X156879999Y-102570600D02*
X156804999Y-102637266D01*
X156804999Y-102637266D02*
X156663333Y-102703933D01*
X156663333Y-102703933D02*
X156463333Y-102703933D01*
X156463333Y-102703933D02*
X156338333Y-102637266D01*
X156996666Y-102170600D02*
X156854999Y-102237266D01*
X156854999Y-102237266D02*
X156588333Y-102237266D01*
X156588333Y-102237266D02*
X156463333Y-102170600D01*
X156463333Y-102170600D02*
X156404999Y-102103933D01*
X156404999Y-102103933D02*
X156354999Y-101970600D01*
X156354999Y-101970600D02*
X156404999Y-101570600D01*
X156404999Y-101570600D02*
X156488333Y-101437266D01*
X156488333Y-101437266D02*
X156563333Y-101370600D01*
X156563333Y-101370600D02*
X156704999Y-101303933D01*
X156704999Y-101303933D02*
X156971666Y-101303933D01*
X156971666Y-101303933D02*
X157096666Y-101370600D01*
X157655000Y-102237266D02*
X157771666Y-101303933D01*
X157830000Y-100837266D02*
X157755000Y-100903933D01*
X157755000Y-100903933D02*
X157813333Y-100970600D01*
X157813333Y-100970600D02*
X157888333Y-100903933D01*
X157888333Y-100903933D02*
X157830000Y-100837266D01*
X157830000Y-100837266D02*
X157813333Y-100970600D01*
X158238333Y-101303933D02*
X158771667Y-101303933D01*
X158496667Y-100837266D02*
X158346667Y-102037266D01*
X158346667Y-102037266D02*
X158396667Y-102170600D01*
X158396667Y-102170600D02*
X158521667Y-102237266D01*
X158521667Y-102237266D02*
X158655000Y-102237266D01*
X160230000Y-100837266D02*
X161163334Y-100837266D01*
X161163334Y-100837266D02*
X160388334Y-102237266D01*
X161588333Y-101703933D02*
X162655000Y-101703933D01*
X163196666Y-102170600D02*
X163388333Y-102237266D01*
X163388333Y-102237266D02*
X163721666Y-102237266D01*
X163721666Y-102237266D02*
X163863333Y-102170600D01*
X163863333Y-102170600D02*
X163938333Y-102103933D01*
X163938333Y-102103933D02*
X164021666Y-101970600D01*
X164021666Y-101970600D02*
X164038333Y-101837266D01*
X164038333Y-101837266D02*
X163988333Y-101703933D01*
X163988333Y-101703933D02*
X163930000Y-101637266D01*
X163930000Y-101637266D02*
X163805000Y-101570600D01*
X163805000Y-101570600D02*
X163546666Y-101503933D01*
X163546666Y-101503933D02*
X163421666Y-101437266D01*
X163421666Y-101437266D02*
X163363333Y-101370600D01*
X163363333Y-101370600D02*
X163313333Y-101237266D01*
X163313333Y-101237266D02*
X163330000Y-101103933D01*
X163330000Y-101103933D02*
X163413333Y-100970600D01*
X163413333Y-100970600D02*
X163488333Y-100903933D01*
X163488333Y-100903933D02*
X163630000Y-100837266D01*
X163630000Y-100837266D02*
X163963333Y-100837266D01*
X163963333Y-100837266D02*
X164155000Y-100903933D01*
X165129999Y-102170600D02*
X164988333Y-102237266D01*
X164988333Y-102237266D02*
X164721666Y-102237266D01*
X164721666Y-102237266D02*
X164596666Y-102170600D01*
X164596666Y-102170600D02*
X164546666Y-102037266D01*
X164546666Y-102037266D02*
X164613333Y-101503933D01*
X164613333Y-101503933D02*
X164696666Y-101370600D01*
X164696666Y-101370600D02*
X164838333Y-101303933D01*
X164838333Y-101303933D02*
X165104999Y-101303933D01*
X165104999Y-101303933D02*
X165229999Y-101370600D01*
X165229999Y-101370600D02*
X165279999Y-101503933D01*
X165279999Y-101503933D02*
X165263333Y-101637266D01*
X165263333Y-101637266D02*
X164579999Y-101770600D01*
X166504999Y-101303933D02*
X166363333Y-102437266D01*
X166363333Y-102437266D02*
X166279999Y-102570600D01*
X166279999Y-102570600D02*
X166204999Y-102637266D01*
X166204999Y-102637266D02*
X166063333Y-102703933D01*
X166063333Y-102703933D02*
X165863333Y-102703933D01*
X165863333Y-102703933D02*
X165738333Y-102637266D01*
X166396666Y-102170600D02*
X166254999Y-102237266D01*
X166254999Y-102237266D02*
X165988333Y-102237266D01*
X165988333Y-102237266D02*
X165863333Y-102170600D01*
X165863333Y-102170600D02*
X165804999Y-102103933D01*
X165804999Y-102103933D02*
X165754999Y-101970600D01*
X165754999Y-101970600D02*
X165804999Y-101570600D01*
X165804999Y-101570600D02*
X165888333Y-101437266D01*
X165888333Y-101437266D02*
X165963333Y-101370600D01*
X165963333Y-101370600D02*
X166104999Y-101303933D01*
X166104999Y-101303933D02*
X166371666Y-101303933D01*
X166371666Y-101303933D02*
X166496666Y-101370600D01*
X167055000Y-102237266D02*
X167171666Y-101303933D01*
X167155000Y-101437266D02*
X167230000Y-101370600D01*
X167230000Y-101370600D02*
X167371666Y-101303933D01*
X167371666Y-101303933D02*
X167571666Y-101303933D01*
X167571666Y-101303933D02*
X167696666Y-101370600D01*
X167696666Y-101370600D02*
X167746666Y-101503933D01*
X167746666Y-101503933D02*
X167655000Y-102237266D01*
X167746666Y-101503933D02*
X167830000Y-101370600D01*
X167830000Y-101370600D02*
X167971666Y-101303933D01*
X167971666Y-101303933D02*
X168171666Y-101303933D01*
X168171666Y-101303933D02*
X168296666Y-101370600D01*
X168296666Y-101370600D02*
X168346666Y-101503933D01*
X168346666Y-101503933D02*
X168255000Y-102237266D01*
X169463333Y-102170600D02*
X169321667Y-102237266D01*
X169321667Y-102237266D02*
X169055000Y-102237266D01*
X169055000Y-102237266D02*
X168930000Y-102170600D01*
X168930000Y-102170600D02*
X168880000Y-102037266D01*
X168880000Y-102037266D02*
X168946667Y-101503933D01*
X168946667Y-101503933D02*
X169030000Y-101370600D01*
X169030000Y-101370600D02*
X169171667Y-101303933D01*
X169171667Y-101303933D02*
X169438333Y-101303933D01*
X169438333Y-101303933D02*
X169563333Y-101370600D01*
X169563333Y-101370600D02*
X169613333Y-101503933D01*
X169613333Y-101503933D02*
X169596667Y-101637266D01*
X169596667Y-101637266D02*
X168913333Y-101770600D01*
X170238333Y-101303933D02*
X170121667Y-102237266D01*
X170221667Y-101437266D02*
X170296667Y-101370600D01*
X170296667Y-101370600D02*
X170438333Y-101303933D01*
X170438333Y-101303933D02*
X170638333Y-101303933D01*
X170638333Y-101303933D02*
X170763333Y-101370600D01*
X170763333Y-101370600D02*
X170813333Y-101503933D01*
X170813333Y-101503933D02*
X170721667Y-102237266D01*
X171305000Y-101303933D02*
X171838334Y-101303933D01*
X171563334Y-100837266D02*
X171413334Y-102037266D01*
X171413334Y-102037266D02*
X171463334Y-102170600D01*
X171463334Y-102170600D02*
X171588334Y-102237266D01*
X171588334Y-102237266D02*
X171721667Y-102237266D01*
X173921667Y-102237266D02*
X173255001Y-102237266D01*
X173255001Y-102237266D02*
X173430001Y-100837266D01*
X174480000Y-101503933D02*
X174946667Y-101503933D01*
X175055000Y-102237266D02*
X174388334Y-102237266D01*
X174388334Y-102237266D02*
X174563334Y-100837266D01*
X174563334Y-100837266D02*
X175230000Y-100837266D01*
X175655001Y-102237266D02*
X175830001Y-100837266D01*
X175830001Y-100837266D02*
X176163334Y-100837266D01*
X176163334Y-100837266D02*
X176355001Y-100903933D01*
X176355001Y-100903933D02*
X176471667Y-101037266D01*
X176471667Y-101037266D02*
X176521667Y-101170600D01*
X176521667Y-101170600D02*
X176555001Y-101437266D01*
X176555001Y-101437266D02*
X176530001Y-101637266D01*
X176530001Y-101637266D02*
X176430001Y-101903933D01*
X176430001Y-101903933D02*
X176346667Y-102037266D01*
X176346667Y-102037266D02*
X176196667Y-102170600D01*
X176196667Y-102170600D02*
X175988334Y-102237266D01*
X175988334Y-102237266D02*
X175655001Y-102237266D01*
X126293334Y-101503933D02*
X126760001Y-101503933D01*
X126868334Y-102237266D02*
X126201668Y-102237266D01*
X126201668Y-102237266D02*
X126376668Y-100837266D01*
X126376668Y-100837266D02*
X127043334Y-100837266D01*
X127410001Y-102170600D02*
X127601668Y-102237266D01*
X127601668Y-102237266D02*
X127935001Y-102237266D01*
X127935001Y-102237266D02*
X128076668Y-102170600D01*
X128076668Y-102170600D02*
X128151668Y-102103933D01*
X128151668Y-102103933D02*
X128235001Y-101970600D01*
X128235001Y-101970600D02*
X128251668Y-101837266D01*
X128251668Y-101837266D02*
X128201668Y-101703933D01*
X128201668Y-101703933D02*
X128143335Y-101637266D01*
X128143335Y-101637266D02*
X128018335Y-101570600D01*
X128018335Y-101570600D02*
X127760001Y-101503933D01*
X127760001Y-101503933D02*
X127635001Y-101437266D01*
X127635001Y-101437266D02*
X127576668Y-101370600D01*
X127576668Y-101370600D02*
X127526668Y-101237266D01*
X127526668Y-101237266D02*
X127543335Y-101103933D01*
X127543335Y-101103933D02*
X127626668Y-100970600D01*
X127626668Y-100970600D02*
X127701668Y-100903933D01*
X127701668Y-100903933D02*
X127843335Y-100837266D01*
X127843335Y-100837266D02*
X128176668Y-100837266D01*
X128176668Y-100837266D02*
X128368335Y-100903933D01*
X128801668Y-102237266D02*
X128976668Y-100837266D01*
X128976668Y-100837266D02*
X129510001Y-100837266D01*
X129510001Y-100837266D02*
X129635001Y-100903933D01*
X129635001Y-100903933D02*
X129693334Y-100970600D01*
X129693334Y-100970600D02*
X129743334Y-101103933D01*
X129743334Y-101103933D02*
X129718334Y-101303933D01*
X129718334Y-101303933D02*
X129635001Y-101437266D01*
X129635001Y-101437266D02*
X129560001Y-101503933D01*
X129560001Y-101503933D02*
X129418334Y-101570600D01*
X129418334Y-101570600D02*
X128885001Y-101570600D01*
X130243334Y-100837266D02*
X131110001Y-100837266D01*
X131110001Y-100837266D02*
X130576668Y-101370600D01*
X130576668Y-101370600D02*
X130776668Y-101370600D01*
X130776668Y-101370600D02*
X130901668Y-101437266D01*
X130901668Y-101437266D02*
X130960001Y-101503933D01*
X130960001Y-101503933D02*
X131010001Y-101637266D01*
X131010001Y-101637266D02*
X130968334Y-101970600D01*
X130968334Y-101970600D02*
X130885001Y-102103933D01*
X130885001Y-102103933D02*
X130810001Y-102170600D01*
X130810001Y-102170600D02*
X130668334Y-102237266D01*
X130668334Y-102237266D02*
X130268334Y-102237266D01*
X130268334Y-102237266D02*
X130143334Y-102170600D01*
X130143334Y-102170600D02*
X130085001Y-102103933D01*
X131626667Y-100970600D02*
X131701667Y-100903933D01*
X131701667Y-100903933D02*
X131843334Y-100837266D01*
X131843334Y-100837266D02*
X132176667Y-100837266D01*
X132176667Y-100837266D02*
X132301667Y-100903933D01*
X132301667Y-100903933D02*
X132360001Y-100970600D01*
X132360001Y-100970600D02*
X132410001Y-101103933D01*
X132410001Y-101103933D02*
X132393334Y-101237266D01*
X132393334Y-101237266D02*
X132301667Y-101437266D01*
X132301667Y-101437266D02*
X131401667Y-102237266D01*
X131401667Y-102237266D02*
X132268334Y-102237266D01*
X132935000Y-101703933D02*
X134001667Y-101703933D01*
X134543333Y-102170600D02*
X134735000Y-102237266D01*
X134735000Y-102237266D02*
X135068333Y-102237266D01*
X135068333Y-102237266D02*
X135210000Y-102170600D01*
X135210000Y-102170600D02*
X135285000Y-102103933D01*
X135285000Y-102103933D02*
X135368333Y-101970600D01*
X135368333Y-101970600D02*
X135385000Y-101837266D01*
X135385000Y-101837266D02*
X135335000Y-101703933D01*
X135335000Y-101703933D02*
X135276667Y-101637266D01*
X135276667Y-101637266D02*
X135151667Y-101570600D01*
X135151667Y-101570600D02*
X134893333Y-101503933D01*
X134893333Y-101503933D02*
X134768333Y-101437266D01*
X134768333Y-101437266D02*
X134710000Y-101370600D01*
X134710000Y-101370600D02*
X134660000Y-101237266D01*
X134660000Y-101237266D02*
X134676667Y-101103933D01*
X134676667Y-101103933D02*
X134760000Y-100970600D01*
X134760000Y-100970600D02*
X134835000Y-100903933D01*
X134835000Y-100903933D02*
X134976667Y-100837266D01*
X134976667Y-100837266D02*
X135310000Y-100837266D01*
X135310000Y-100837266D02*
X135501667Y-100903933D01*
X135976666Y-100837266D02*
X136843333Y-100837266D01*
X136843333Y-100837266D02*
X136310000Y-101370600D01*
X136310000Y-101370600D02*
X136510000Y-101370600D01*
X136510000Y-101370600D02*
X136635000Y-101437266D01*
X136635000Y-101437266D02*
X136693333Y-101503933D01*
X136693333Y-101503933D02*
X136743333Y-101637266D01*
X136743333Y-101637266D02*
X136701666Y-101970600D01*
X136701666Y-101970600D02*
X136618333Y-102103933D01*
X136618333Y-102103933D02*
X136543333Y-102170600D01*
X136543333Y-102170600D02*
X136401666Y-102237266D01*
X136401666Y-102237266D02*
X136001666Y-102237266D01*
X136001666Y-102237266D02*
X135876666Y-102170600D01*
X135876666Y-102170600D02*
X135818333Y-102103933D01*
X137334999Y-101703933D02*
X138401666Y-101703933D01*
X139043332Y-100837266D02*
X139976666Y-100837266D01*
X139976666Y-100837266D02*
X138868332Y-102237266D01*
X138868332Y-102237266D02*
X139801666Y-102237266D01*
X140876665Y-102170600D02*
X140734999Y-102237266D01*
X140734999Y-102237266D02*
X140468332Y-102237266D01*
X140468332Y-102237266D02*
X140343332Y-102170600D01*
X140343332Y-102170600D02*
X140293332Y-102037266D01*
X140293332Y-102037266D02*
X140359999Y-101503933D01*
X140359999Y-101503933D02*
X140443332Y-101370600D01*
X140443332Y-101370600D02*
X140584999Y-101303933D01*
X140584999Y-101303933D02*
X140851665Y-101303933D01*
X140851665Y-101303933D02*
X140976665Y-101370600D01*
X140976665Y-101370600D02*
X141026665Y-101503933D01*
X141026665Y-101503933D02*
X141009999Y-101637266D01*
X141009999Y-101637266D02*
X140326665Y-101770600D01*
X141534999Y-102237266D02*
X141651665Y-101303933D01*
X141618332Y-101570600D02*
X141701665Y-101437266D01*
X141701665Y-101437266D02*
X141776665Y-101370600D01*
X141776665Y-101370600D02*
X141918332Y-101303933D01*
X141918332Y-101303933D02*
X142051665Y-101303933D01*
X142601666Y-102237266D02*
X142476666Y-102170600D01*
X142476666Y-102170600D02*
X142418332Y-102103933D01*
X142418332Y-102103933D02*
X142368332Y-101970600D01*
X142368332Y-101970600D02*
X142418332Y-101570600D01*
X142418332Y-101570600D02*
X142501666Y-101437266D01*
X142501666Y-101437266D02*
X142576666Y-101370600D01*
X142576666Y-101370600D02*
X142718332Y-101303933D01*
X142718332Y-101303933D02*
X142918332Y-101303933D01*
X142918332Y-101303933D02*
X143043332Y-101370600D01*
X143043332Y-101370600D02*
X143101666Y-101437266D01*
X143101666Y-101437266D02*
X143151666Y-101570600D01*
X143151666Y-101570600D02*
X143101666Y-101970600D01*
X143101666Y-101970600D02*
X143018332Y-102103933D01*
X143018332Y-102103933D02*
X142943332Y-102170600D01*
X142943332Y-102170600D02*
X142801666Y-102237266D01*
X142801666Y-102237266D02*
X142601666Y-102237266D01*
D11*
X154164819Y-107013333D02*
X154879104Y-107013333D01*
X154879104Y-107013333D02*
X155021961Y-107060952D01*
X155021961Y-107060952D02*
X155117200Y-107156190D01*
X155117200Y-107156190D02*
X155164819Y-107299047D01*
X155164819Y-107299047D02*
X155164819Y-107394285D01*
X154260057Y-106584761D02*
X154212438Y-106537142D01*
X154212438Y-106537142D02*
X154164819Y-106441904D01*
X154164819Y-106441904D02*
X154164819Y-106203809D01*
X154164819Y-106203809D02*
X154212438Y-106108571D01*
X154212438Y-106108571D02*
X154260057Y-106060952D01*
X154260057Y-106060952D02*
X154355295Y-106013333D01*
X154355295Y-106013333D02*
X154450533Y-106013333D01*
X154450533Y-106013333D02*
X154593390Y-106060952D01*
X154593390Y-106060952D02*
X155164819Y-106632380D01*
X155164819Y-106632380D02*
X155164819Y-106013333D01*
X121144819Y-94313333D02*
X121859104Y-94313333D01*
X121859104Y-94313333D02*
X122001961Y-94360952D01*
X122001961Y-94360952D02*
X122097200Y-94456190D01*
X122097200Y-94456190D02*
X122144819Y-94599047D01*
X122144819Y-94599047D02*
X122144819Y-94694285D01*
X122144819Y-93313333D02*
X122144819Y-93884761D01*
X122144819Y-93599047D02*
X121144819Y-93599047D01*
X121144819Y-93599047D02*
X121287676Y-93694285D01*
X121287676Y-93694285D02*
X121382914Y-93789523D01*
X121382914Y-93789523D02*
X121430533Y-93884761D01*
X154164819Y-96853333D02*
X154879104Y-96853333D01*
X154879104Y-96853333D02*
X155021961Y-96900952D01*
X155021961Y-96900952D02*
X155117200Y-96996190D01*
X155117200Y-96996190D02*
X155164819Y-97139047D01*
X155164819Y-97139047D02*
X155164819Y-97234285D01*
X154164819Y-96472380D02*
X154164819Y-95853333D01*
X154164819Y-95853333D02*
X154545771Y-96186666D01*
X154545771Y-96186666D02*
X154545771Y-96043809D01*
X154545771Y-96043809D02*
X154593390Y-95948571D01*
X154593390Y-95948571D02*
X154641009Y-95900952D01*
X154641009Y-95900952D02*
X154736247Y-95853333D01*
X154736247Y-95853333D02*
X154974342Y-95853333D01*
X154974342Y-95853333D02*
X155069580Y-95900952D01*
X155069580Y-95900952D02*
X155117200Y-95948571D01*
X155117200Y-95948571D02*
X155164819Y-96043809D01*
X155164819Y-96043809D02*
X155164819Y-96329523D01*
X155164819Y-96329523D02*
X155117200Y-96424761D01*
X155117200Y-96424761D02*
X155069580Y-96472380D01*
X121144819Y-109553333D02*
X121859104Y-109553333D01*
X121859104Y-109553333D02*
X122001961Y-109600952D01*
X122001961Y-109600952D02*
X122097200Y-109696190D01*
X122097200Y-109696190D02*
X122144819Y-109839047D01*
X122144819Y-109839047D02*
X122144819Y-109934285D01*
X121144819Y-108886666D02*
X121144819Y-108791428D01*
X121144819Y-108791428D02*
X121192438Y-108696190D01*
X121192438Y-108696190D02*
X121240057Y-108648571D01*
X121240057Y-108648571D02*
X121335295Y-108600952D01*
X121335295Y-108600952D02*
X121525771Y-108553333D01*
X121525771Y-108553333D02*
X121763866Y-108553333D01*
X121763866Y-108553333D02*
X121954342Y-108600952D01*
X121954342Y-108600952D02*
X122049580Y-108648571D01*
X122049580Y-108648571D02*
X122097200Y-108696190D01*
X122097200Y-108696190D02*
X122144819Y-108791428D01*
X122144819Y-108791428D02*
X122144819Y-108886666D01*
X122144819Y-108886666D02*
X122097200Y-108981904D01*
X122097200Y-108981904D02*
X122049580Y-109029523D01*
X122049580Y-109029523D02*
X121954342Y-109077142D01*
X121954342Y-109077142D02*
X121763866Y-109124761D01*
X121763866Y-109124761D02*
X121525771Y-109124761D01*
X121525771Y-109124761D02*
X121335295Y-109077142D01*
X121335295Y-109077142D02*
X121240057Y-109029523D01*
X121240057Y-109029523D02*
X121192438Y-108981904D01*
X121192438Y-108981904D02*
X121144819Y-108886666D01*
D12*
X156150000Y-105350000D02*
X157480000Y-105350000D01*
X156150000Y-106680000D02*
X156150000Y-105350000D01*
X158750000Y-105350000D02*
X171510000Y-105350000D01*
X158750000Y-108010000D02*
X158750000Y-105350000D01*
X158750000Y-108010000D02*
X171510000Y-108010000D01*
X171510000Y-108010000D02*
X171510000Y-105350000D01*
X123130000Y-92650000D02*
X124460000Y-92650000D01*
X123130000Y-93980000D02*
X123130000Y-92650000D01*
X125730000Y-92650000D02*
X146110000Y-92650000D01*
X125730000Y-95310000D02*
X125730000Y-92650000D01*
X125730000Y-95310000D02*
X146110000Y-95310000D01*
X146110000Y-95310000D02*
X146110000Y-92650000D01*
X156150000Y-95190000D02*
X157480000Y-95190000D01*
X156150000Y-96520000D02*
X156150000Y-95190000D01*
X158750000Y-95190000D02*
X171510000Y-95190000D01*
X158750000Y-97850000D02*
X158750000Y-95190000D01*
X158750000Y-97850000D02*
X171510000Y-97850000D01*
X171510000Y-97850000D02*
X171510000Y-95190000D01*
X123130000Y-107890000D02*
X124460000Y-107890000D01*
X123130000Y-109220000D02*
X123130000Y-107890000D01*
X125730000Y-107890000D02*
X146110000Y-107890000D01*
X125730000Y-110550000D02*
X125730000Y-107890000D01*
X125730000Y-110550000D02*
X146110000Y-110550000D01*
X146110000Y-110550000D02*
X146110000Y-107890000D01*
%LPC*%
D13*
X157480000Y-106680000D03*
D14*
X160020000Y-106680000D03*
X162560000Y-106680000D03*
X165100000Y-106680000D03*
X167640000Y-106680000D03*
X170180000Y-106680000D03*
D13*
X124460000Y-93980000D03*
D14*
X127000000Y-93980000D03*
X129540000Y-93980000D03*
X132080000Y-93980000D03*
X134620000Y-93980000D03*
X137160000Y-93980000D03*
X139700000Y-93980000D03*
X142240000Y-93980000D03*
X144780000Y-93980000D03*
D13*
X157480000Y-96520000D03*
D14*
X160020000Y-96520000D03*
X162560000Y-96520000D03*
X165100000Y-96520000D03*
X167640000Y-96520000D03*
X170180000Y-96520000D03*
D13*
X124460000Y-109220000D03*
D14*
X127000000Y-109220000D03*
X129540000Y-109220000D03*
X132080000Y-109220000D03*
X134620000Y-109220000D03*
X137160000Y-109220000D03*
X139700000Y-109220000D03*
X142240000Y-109220000D03*
X144780000Y-109220000D03*
D15*
X127000000Y-97790000D03*
D16*
X129540000Y-97790000D03*
X132080000Y-97790000D03*
X134620000Y-97790000D03*
X137160000Y-97790000D03*
X139700000Y-97790000D03*
X142240000Y-97790000D03*
X144780000Y-97790000D03*
X144780000Y-105410000D03*
X142240000Y-105410000D03*
X139700000Y-105410000D03*
X137160000Y-105410000D03*
X134620000Y-105410000D03*
X132080000Y-105410000D03*
X129540000Y-105410000D03*
X127000000Y-105410000D03*
%LPD*%
M02*
