M48
; DRILL file {KiCad 9.0.5} date 2026-04-21T12:32:10+0900
; FORMAT={-:-/ absolute / metric / decimal}
; #@! TF.CreationDate,2026-04-21T12:32:10+09:00
; #@! TF.GenerationSoftware,Kicad,Pcbnew,9.0.5
; #@! TF.FileFunction,Plated,1,4,PTH
FMAT,2
METRIC
; #@! TA.AperFunction,Plated,PTH,ComponentDrill
T1C0.800
; #@! TA.AperFunction,Plated,PTH,ComponentDrill
T2C1.000
%
G90
G05
T1
X127.0Y-97.79
X127.0Y-105.41
X129.54Y-97.79
X129.54Y-105.41
X132.08Y-97.79
X132.08Y-105.41
X134.62Y-97.79
X134.62Y-105.41
X137.16Y-97.79
X137.16Y-105.41
X139.7Y-97.79
X139.7Y-105.41
X142.24Y-97.79
X142.24Y-105.41
X144.78Y-97.79
X144.78Y-105.41
T2
X124.46Y-93.98
X124.46Y-109.22
X127.0Y-93.98
X127.0Y-109.22
X129.54Y-93.98
X129.54Y-109.22
X132.08Y-93.98
X132.08Y-109.22
X134.62Y-93.98
X134.62Y-109.22
X137.16Y-93.98
X137.16Y-109.22
X139.7Y-93.98
X139.7Y-109.22
X142.24Y-93.98
X142.24Y-109.22
X144.78Y-93.98
X144.78Y-109.22
X157.48Y-96.52
X157.48Y-106.68
X160.02Y-96.52
X160.02Y-106.68
X162.56Y-96.52
X162.56Y-106.68
X165.1Y-96.52
X165.1Y-106.68
X167.64Y-96.52
X167.64Y-106.68
X170.18Y-96.52
X170.18Y-106.68
M30
