G04 #@! TF.GenerationSoftware,KiCad,Pcbnew,9.0.5*
G04 #@! TF.CreationDate,2026-04-21T12:32:03+09:00*
G04 #@! TF.ProjectId,TimeRGB,54696d65-5247-4422-9e6b-696361645f70,1.0*
G04 #@! TF.SameCoordinates,Original*
G04 #@! TF.FileFunction,Copper,L3,Inr*
G04 #@! TF.FilePolarity,Positive*
%FSLAX46Y46*%
G04 Gerber Fmt 4.6, Leading zero omitted, Abs format (unit mm)*
G04 Created by KiCad (PCBNEW 9.0.5) date 2026-04-21 12:32:03*
%MOMM*%
%LPD*%
G01*
G04 APERTURE LIST*
G04 Aperture macros list*
%AMRoundRect*
0 Rectangle with rounded corners*
0 $1 Rounding radius*
0 $2 $3 $4 $5 $6 $7 $8 $9 X,Y pos of 4 corners*
0 Add a 4 corners polygon primitive as box body*
4,1,4,$2,$3,$4,$5,$6,$7,$8,$9,$2,$3,0*
0 Add four circle primitives for the rounded corners*
1,1,$1+$1,$2,$3*
1,1,$1+$1,$4,$5*
1,1,$1+$1,$6,$7*
1,1,$1+$1,$8,$9*
0 Add four rect primitives between the rounded corners*
20,1,$1+$1,$2,$3,$4,$5,0*
20,1,$1+$1,$4,$5,$6,$7,0*
20,1,$1+$1,$6,$7,$8,$9,0*
20,1,$1+$1,$8,$9,$2,$3,0*%
G04 Aperture macros list end*
G04 #@! TA.AperFunction,ComponentPad*
%ADD10R,1.700000X1.700000*%
G04 #@! TD*
G04 #@! TA.AperFunction,ComponentPad*
%ADD11C,1.700000*%
G04 #@! TD*
G04 #@! TA.AperFunction,ComponentPad*
%ADD12RoundRect,0.250000X-0.550000X0.550000X-0.550000X-0.550000X0.550000X-0.550000X0.550000X0.550000X0*%
G04 #@! TD*
G04 #@! TA.AperFunction,ComponentPad*
%ADD13C,1.600000*%
G04 #@! TD*
G04 #@! TA.AperFunction,Conductor*
%ADD14C,0.300000*%
G04 #@! TD*
G04 APERTURE END LIST*
D10*
X157480000Y-106680000D03*
D11*
X160020000Y-106680000D03*
X162560000Y-106680000D03*
X165100000Y-106680000D03*
X167640000Y-106680000D03*
X170180000Y-106680000D03*
D10*
X124460000Y-93980000D03*
D11*
X127000000Y-93980000D03*
X129540000Y-93980000D03*
X132080000Y-93980000D03*
X134620000Y-93980000D03*
X137160000Y-93980000D03*
X139700000Y-93980000D03*
X142240000Y-93980000D03*
X144780000Y-93980000D03*
D10*
X157480000Y-96520000D03*
D11*
X160020000Y-96520000D03*
X162560000Y-96520000D03*
X165100000Y-96520000D03*
X167640000Y-96520000D03*
X170180000Y-96520000D03*
D10*
X124460000Y-109220000D03*
D11*
X127000000Y-109220000D03*
X129540000Y-109220000D03*
X132080000Y-109220000D03*
X134620000Y-109220000D03*
X137160000Y-109220000D03*
X139700000Y-109220000D03*
X142240000Y-109220000D03*
X144780000Y-109220000D03*
D12*
X127000000Y-97790000D03*
D13*
X129540000Y-97790000D03*
X132080000Y-97790000D03*
X134620000Y-97790000D03*
X137160000Y-97790000D03*
X139700000Y-97790000D03*
X142240000Y-97790000D03*
X144780000Y-97790000D03*
X144780000Y-105410000D03*
X142240000Y-105410000D03*
X139700000Y-105410000D03*
X137160000Y-105410000D03*
X134620000Y-105410000D03*
X132080000Y-105410000D03*
X129540000Y-105410000D03*
X127000000Y-105410000D03*
D14*
X144780000Y-109220000D02*
X168910000Y-109220000D01*
X170180000Y-106680000D02*
X170180000Y-107950000D01*
X170180000Y-107950000D02*
X168910000Y-109220000D01*
X132080000Y-95250000D02*
X133350000Y-96520000D01*
X132080000Y-93980000D02*
X132080000Y-95250000D01*
X157480000Y-96520000D02*
X133350000Y-96520000D01*
X140970000Y-95250000D02*
X139700000Y-93980000D01*
X165100000Y-96520000D02*
X163830000Y-95250000D01*
X163830000Y-95250000D02*
X140970000Y-95250000D01*
X167640000Y-96520000D02*
X167640000Y-93980000D01*
X166370000Y-92710000D02*
X143510000Y-92710000D01*
X167640000Y-93980000D02*
X166370000Y-92710000D01*
X143510000Y-92710000D02*
X142240000Y-93980000D01*
X144780000Y-97790000D02*
X168910000Y-97790000D01*
X168910000Y-97790000D02*
X170180000Y-96520000D01*
X157480000Y-105410000D02*
X157480000Y-106680000D01*
X156210000Y-104140000D02*
X157480000Y-105410000D01*
X133350000Y-104140000D02*
X156210000Y-104140000D01*
X132080000Y-97790000D02*
X132080000Y-102870000D01*
X132080000Y-102870000D02*
X133350000Y-104140000D01*
X138430000Y-101600000D02*
X161290000Y-101600000D01*
X161290000Y-101600000D02*
X162560000Y-102870000D01*
X137160000Y-97790000D02*
X137160000Y-100330000D01*
X137160000Y-100330000D02*
X138430000Y-101600000D01*
X162560000Y-102870000D02*
X162560000Y-106680000D01*
X158750000Y-102870000D02*
X160020000Y-104140000D01*
X134620000Y-101600000D02*
X135890000Y-102870000D01*
X134620000Y-97790000D02*
X134620000Y-101600000D01*
X135890000Y-102870000D02*
X158750000Y-102870000D01*
X160020000Y-104140000D02*
X160020000Y-106680000D01*
X142240000Y-97790000D02*
X143510000Y-99060000D01*
X166370000Y-99060000D02*
X167640000Y-100330000D01*
X167640000Y-100330000D02*
X167640000Y-106680000D01*
X143510000Y-99060000D02*
X166370000Y-99060000D01*
X139700000Y-99060000D02*
X140970000Y-100330000D01*
X139700000Y-97790000D02*
X139700000Y-99060000D01*
X165100000Y-101600000D02*
X165100000Y-106680000D01*
X140970000Y-100330000D02*
X163830000Y-100330000D01*
X163830000Y-100330000D02*
X165100000Y-101600000D01*
M02*
